<svg width="58" height="58" viewBox="0 0 58 58" fill="none" xmlns="http://www.w3.org/2000/svg">
<g clip-path="url(#clip0_0_62)">
<path d="M12.0835 7.25H48.3335C49.6154 7.25 50.8447 7.75922 51.7512 8.66565C52.6576 9.57208 53.1668 10.8015 53.1668 12.0833V19.3333C53.1668 20.6152 52.6576 21.8446 51.7512 22.751C50.8447 23.6574 49.6154 24.1667 48.3335 24.1667H43.5002V31.4167C43.5002 33.9804 42.4817 36.4392 40.6689 38.252C38.856 40.0649 36.3973 41.0833 33.8335 41.0833H19.3335C16.7697 41.0833 14.311 40.0649 12.4981 38.252C10.6853 36.4392 9.66683 33.9804 9.66683 31.4167V9.66667C9.66683 9.02573 9.92144 8.41104 10.3747 7.95783C10.8279 7.50461 11.4426 7.25 12.0835 7.25ZM43.5002 12.0833V19.3333H48.3335V12.0833H43.5002ZM4.8335 45.9167H48.3335V50.75H4.8335V45.9167Z" fill="black"/>
</g>
<defs>
<clipPath id="clip0_0_62">
<rect width="58" height="58" fill="white"/>
</clipPath>
</defs>
</svg>
