<svg width="29" height="40" viewBox="0 0 29 40" fill="none" xmlns="http://www.w3.org/2000/svg">
<path d="M0 0H15.4473C18.9589 0 22.3267 1.39498 24.8098 3.87807C27.2929 6.36116 28.6879 9.72894 28.6879 13.2406C28.6879 16.7522 27.2929 20.12 24.8098 22.603C22.3267 25.0861 18.9589 26.4811 15.4473 26.4811H8.82704V39.7217H0V0ZM8.82704 8.82704V17.6541H15.4473C16.6179 17.6541 17.7404 17.1891 18.5681 16.3614C19.3958 15.5337 19.8608 14.4111 19.8608 13.2406C19.8608 12.07 19.3958 10.9474 18.5681 10.1197C17.7404 9.29203 16.6179 8.82704 15.4473 8.82704H8.82704Z" fill="black"/>
</svg>
