<svg width="56" height="56" viewBox="0 0 56 56" fill="none" xmlns="http://www.w3.org/2000/svg">
<path d="M1.60986 16.3264C9.07441 10.2791 18.3932 6.98583 27.9999 7.00005C37.9982 7.00005 47.1799 10.493 54.3899 16.3264L51.4592 19.957C44.8237 14.5812 36.5397 11.6537 27.9999 11.6667C19.1122 11.6667 10.9525 14.77 4.54053 19.957L1.60986 16.3264ZM8.93886 25.403C14.3303 21.035 21.0611 18.6563 27.9999 18.6667C35.2192 18.6667 41.8505 21.189 47.0609 25.4007L44.1279 29.0314C39.5658 25.3362 33.8707 23.3241 27.9999 23.3334C21.8912 23.3334 16.2795 25.4684 11.8719 29.0314L8.93886 25.4007V25.403ZM16.2702 34.4797C19.5878 31.7915 23.7298 30.3273 27.9999 30.3334C32.4425 30.3334 36.5235 31.885 39.7295 34.4774L36.7965 38.1081C34.3082 36.0926 31.202 34.9951 27.9999 35C24.6679 35 21.6065 36.1644 19.2032 38.1081L16.2702 34.4774V34.4797ZM23.6015 43.5564C24.8453 42.5477 26.3985 41.9981 27.9999 42C29.6659 42 31.1965 42.5834 32.3982 43.5541L27.9999 49L23.6015 43.5541V43.5564Z" fill="black"/>
</svg>
